<svg xmlns="http://www.w3.org/2000/svg" xmlns:xlink="http://www.w3.org/1999/xlink" width="995.78" height="898.3" viewBox="0 0 995.78 898.3">
  <defs>
    <linearGradient id="linear-gradient" x1="0.501" y1="0.999" x2="0.501" y2="0.001" gradientUnits="objectBoundingBox">
      <stop offset="0" stop-color="gray" stop-opacity="0.251"/>
      <stop offset="0.54" stop-color="gray" stop-opacity="0.122"/>
      <stop offset="1" stop-color="gray" stop-opacity="0.102"/>
    </linearGradient>
    <linearGradient id="linear-gradient-4" x1="0.499" y1="1" x2="0.499" y2="0" xlink:href="#linear-gradient"/>
    <linearGradient id="linear-gradient-7" x1="0.5" y1="1" x2="0.5" y2="0" xlink:href="#linear-gradient"/>
    <linearGradient id="linear-gradient-12" x1="0.5" y1="1" x2="0.5" y2="0" xlink:href="#linear-gradient"/>
    <linearGradient id="linear-gradient-13" x1="0.5" y1="1" x2="0.5" y2="0" xlink:href="#linear-gradient"/>
    <linearGradient id="linear-gradient-14" x1="0.5" y1="1" x2="0.5" y2="0" xlink:href="#linear-gradient"/>
    <linearGradient id="linear-gradient-16" x1="0.5" y1="1" x2="0.5" y2="0" xlink:href="#linear-gradient"/>
    <linearGradient id="linear-gradient-17" x1="0.5" y1="1" x2="0.5" y2="0" xlink:href="#linear-gradient"/>
    <linearGradient id="linear-gradient-18" x1="-0.222" y1="1" x2="-0.222" y2="0" xlink:href="#linear-gradient"/>
    <linearGradient id="linear-gradient-19" x1="1.485" y1="1" x2="1.485" y2="0" xlink:href="#linear-gradient"/>
    <linearGradient id="linear-gradient-28" x1="0.5" y1="1" x2="0.5" y2="0.001" xlink:href="#linear-gradient"/>
  </defs>
  <g id="Group_21" data-name="Group 21" transform="translate(0 142)">
    <path id="Path_43" data-name="Path 43" d="M543.89,117.19H542c-.39,0-1.37-1.55-1.37-2v-1.8c0-1.41-1.59-5.27-3-5.27s-3,3.86-3,5.27v1.8c0,.64-.49,2-1.09,2H531.6c-1.41,0-5.27,1.09-5.27,2.5s3.86,2.5,5.27,2.5h2.31c.74,0,.72.75.72,1.14v2.4c0,1.41,1.59,5.27,3,5.27s3-3.86,3-5.27v-2.4c0-.32.64-1.14,1-1.14h2.31c1.41,0,5.27-1.09,5.27-2.5S545.3,117.19,543.89,117.19Z" transform="translate(-132.11 -233.85)" fill="#2196f3"/>
    <path id="Path_44" data-name="Path 44" d="M271.88,220.43h-2.57c-.52,0-1.81-2.05-1.81-2.64v-2.38c0-1.86-2.11-7-4-7s-4,5.1-4,7v2.38c0,.84-.65,2.64-1.44,2.64H255.5c-1.86,0-7,1.44-7,3.3s5.1,3.3,7,3.3h3.06c1,0,.94,1,.94,1.51v3.18c0,1.85,2.1,7,4,7s4-5.11,4-7v-3.18c0-.42.85-1.51,1.32-1.51h3.06c1.86,0,7-1.44,7-3.3S273.74,220.43,271.88,220.43Z" transform="translate(-102.11 -71.85)" fill="url(#linear-gradient)"/>
    <path id="Path_45" data-name="Path 45" d="M545.88,116.43h-2.57c-.52,0-1.81-2.05-1.81-2.64v-2.38c0-1.86-2.11-7-4-7s-4,5.1-4,7v2.38c0,.84-.65,2.64-1.44,2.64H529.5c-1.86,0-7,1.44-7,3.3s5.1,3.3,7,3.3h3.06c1,0,.94,1,.94,1.51v3.18c0,1.85,2.1,7,4,7s4-5.11,4-7v-3.18c0-.42.85-1.51,1.32-1.51h3.06c1.86,0,7-1.44,7-3.3S547.74,116.43,545.88,116.43Z" transform="translate(-132.11 -233.85)" fill="url(#linear-gradient)"/>
    <path id="Path_46" data-name="Path 46" d="M822.88,163.43h-2.57c-.52,0-1.81-2.05-1.81-2.64v-2.38c0-1.86-2.11-7-4-7s-4,5.1-4,7v2.38c0,.84-.65,2.64-1.44,2.64H806.5c-1.86,0-7,1.44-7,3.3s5.1,3.3,7,3.3h3.06c1,0,.94,1,.94,1.51v3.18c0,1.85,2.1,7,4,7s4-5.11,4-7v-3.18c0-.42.85-1.51,1.32-1.51h3.06c1.86,0,7-1.44,7-3.3S824.74,163.43,822.88,163.43Z" transform="translate(-132.11 -233.85)" fill="url(#linear-gradient)"/>
    <path id="Path_47" data-name="Path 47" d="M712.81,147.19h-1.24c-.25,0-1-1-1-1.26v-1.15c0-.9-1.1-3.36-2-3.36s-2,2.46-2,3.36v1.15c0,.4,0,1.26-.41,1.26h-1.23c-.9,0-3.36.6-3.36,1.5s2.46,1.5,3.36,1.5h1.47c.47,0,.17.68.17.92v1.53c0,.9,1.1,3.36,2,3.36s2-2.46,2-3.36v-1.53c0-.2.52-.92.75-.92h1.48c.89,0,3.35-.6,3.35-1.5S713.7,147.19,712.81,147.19Z" transform="translate(-132.11 -233.85)" fill="#1976d2"/>
    <path id="Path_48" data-name="Path 48" d="M365.28,203.23h-2c-.41,0-1.61-1.6-1.61-2.06V199.3c0-1.46-1.8-5.48-3.26-5.48s-3.26,4-3.26,5.48v1.87c0,.66,0,2.06-.66,2.06h-2c-1.46,0-5.48,1-5.48,2.45s4,2.44,5.48,2.44h2.4c.77,0,.28,1.11.28,1.5v2.5c0,1.47,1.79,5.48,3.26,5.48s3.26-4,3.26-5.48v-2.5c0-.33.85-1.5,1.22-1.5h2.4c1.47,0,5.48-1,5.48-2.44S366.75,203.23,365.28,203.23Z" transform="translate(-132.11 -233.85)" fill="url(#linear-gradient-4)"/>
    <path id="Path_49" data-name="Path 49" d="M715.28,146.23h-2c-.41,0-1.61-1.6-1.61-2.06V142.3c0-1.46-1.8-5.48-3.26-5.48s-3.26,4-3.26,5.48v1.87c0,.66,0,2.06-.66,2.06h-2c-1.46,0-5.48,1-5.48,2.45s4,2.44,5.48,2.44h2.4c.77,0,.28,1.11.28,1.5v2.5c0,1.47,1.79,5.48,3.26,5.48s3.26-4,3.26-5.48v-2.5c0-.33.85-1.5,1.22-1.5h2.4c1.47,0,5.48-1,5.48-2.44S716.75,146.23,715.28,146.23Z" transform="translate(-132.11 -233.85)" fill="url(#linear-gradient-4)"/>
    <path id="Path_50" data-name="Path 50" d="M916.28,146.23h-2c-.41,0-1.61-1.6-1.61-2.06V142.3c0-1.46-1.8-5.48-3.26-5.48s-3.26,4-3.26,5.48v1.87c0,.66,0,2.06-.66,2.06h-2c-1.46,0-5.48,1-5.48,2.45s4,2.44,5.48,2.44h2.4c.77,0,.28,1.11.28,1.5v2.5c0,1.47,1.79,5.48,3.26,5.48s3.26-4,3.26-5.48v-2.5c0-.33.85-1.5,1.22-1.5h2.4c1.47,0,5.48-1,5.48-2.44S917.75,146.23,916.28,146.23Z" transform="translate(-132.11 -233.85)" fill="url(#linear-gradient-4)"/>
    <path id="Path_51" data-name="Path 51" d="M362.81,204.19h-1.24c-.25,0-1-1-1-1.26v-1.15c0-.9-1.1-3.36-2-3.36s-2,2.46-2,3.36v1.15c0,.4,0,1.26-.41,1.26h-1.23c-.9,0-3.36.6-3.36,1.5s2.46,1.5,3.36,1.5h1.47c.47,0,.17.68.17.92v1.53c0,.9,1.1,3.36,2,3.36s2-2.46,2-3.36v-1.53c0-.2.52-.92.75-.92h1.48c.89,0,3.35-.6,3.35-1.5S363.7,204.19,362.81,204.19Z" transform="translate(-148.11 -233.85)" fill="#1976d2"/>
    <circle id="Ellipse_22" data-name="Ellipse 22" cx="7.5" cy="7.5" r="7.5" transform="translate(507.47 -117.66)" fill="#64b5f6"/>
    <circle id="Ellipse_23" data-name="Ellipse 23" cx="2.5" cy="2.5" r="2.5" transform="translate(500.47 -52.33)" fill="#0071bc"/>
    <circle id="Ellipse_24" data-name="Ellipse 24" cx="6.96" cy="6.96" r="6.96" transform="translate(210.47 -102.66)" fill="#64b5f6"/>
    <circle id="Ellipse_25" data-name="Ellipse 25" cx="3.48" cy="3.48" r="3.48" transform="translate(182.47 89.15)" fill="#64b5f6"/>
    <circle id="Ellipse_26" data-name="Ellipse 26" cx="3.48" cy="3.48" r="3.48" transform="translate(469.47 160.15)" fill="#82a9ff"/>
    <circle id="Ellipse_27" data-name="Ellipse 27" cx="6.5" cy="6.5" r="6.5" transform="translate(207.77 219.26)" fill="#82a9ff"/>
    <circle id="Ellipse_28" data-name="Ellipse 28" cx="6.07" cy="6.07" r="6.07" transform="translate(307.11 -117.02)" fill="url(#linear-gradient-7)"/>
    <circle id="Ellipse_29" data-name="Ellipse 29" cx="6.07" cy="6.07" r="6.07" transform="translate(308.11 -41.02)" fill="url(#linear-gradient-7)"/>
    <circle id="Ellipse_30" data-name="Ellipse 30" cx="6.07" cy="6.07" r="6.07" transform="translate(611.11 -113.02)" fill="url(#linear-gradient-7)"/>
    <circle id="Ellipse_31" data-name="Ellipse 31" cx="6.07" cy="6.07" r="6.07" transform="translate(766.11 -25.02)" fill="url(#linear-gradient-7)"/>
    <circle id="Ellipse_32" data-name="Ellipse 32" cx="3.71" cy="3.71" r="3.71" transform="translate(309.47 -114.66)" fill="#0d47a1"/>
    <circle id="Ellipse_33" data-name="Ellipse 33" cx="7.5" cy="7.5" r="7.5" transform="translate(398.47 -63.66)" fill="#64b5f6"/>
    <rect id="Rectangle_3" data-name="Rectangle 3" width="158.17" height="267.8" rx="13" transform="translate(411.64 313.1)" fill="url(#linear-gradient-7)"/>
    <rect id="Rectangle_4" data-name="Rectangle 4" width="150.17" height="255.21" rx="13" transform="translate(416.17 318.74)" fill="#312e58"/>
    <path id="Path_52" data-name="Path 52" d="M416.17,664.36h66.32l-16.31,66.61" fill="none"/>
    <path id="Path_53" data-name="Path 53" d="M536.72,380.06l-85.78,1.77-23.75-27.29,127.88-2.3Z" fill="#e0e0e0"/>
    <path id="Path_54" data-name="Path 54" d="M555.07,354.37H427.19l25.52-13.65,75.15-2.48Z" fill="#e0e0e0"/>
    <path id="Path_55" data-name="Path 55" d="M751.58,462.48c-12.09-5.36-28.3,2-31.74,14.37-9.09-25.88-31.1-47-57.54-56.54-4.37-1.58-16.5-6.39-19.86-2.64-1.56,1.74-4.57,8.61-4.38,14.34H548.13v-3.36c0-13.07-10.51-13.52-23.21-10.47a70.4,70.4,0,0,0-29.63,15.92c-13.51,11.91-22.9,27.45-32.08,42.72l-16-15.89c-1.76-1.75-3.86-3.63-6.39-3.51-2.68.13-4.62,2.44-6.18,4.54-7.06,9.52-14.34,19.53-16,31.12-1.66,11.41,2.31,22.81,6.23,33.69,3.82,10.64,8.9,25.68,19.89,29.47,11.83,4.09,24.31,4.57,34.55-2.44,16-11,32.49-22.37,44.17-37.42V630.64h1.35l-11,169.7,73.54-.38,5.25-169.32h2.16L598.31,800l74.82.38-11.21-169.7h2.32V515.24l2,1.66,36.29,30.35c7.55,6.32,16.19,13,26.17,12.51,7.17-.36,13.67-12.38,18.25-17.71s7.55-11.75,10.46-18.09c4.82-10.49,9.73-21.33,10.06-32.8S762.4,467.27,751.58,462.48Z" transform="translate(-102.11 -71.85)" fill="url(#linear-gradient-12)"/>
    <path id="Path_56" data-name="Path 56" d="M744.7,465.12c-11.57-5.31-27.07,2-30.36,14.27-8.7-25.69-29.75-46.61-55-56.1-4.19-1.57-14.29-6.34-17.5-2.63-1.5,1.73-1.38,8.55-1.2,14.24h-95v-3.34c-.05-13-5.57-13.41-17.72-10.38-10.59,2.64-20.33,8.46-28.34,15.79-12.93,11.82-21.91,27.23-30.68,42.39l-15.32-15.77c-1.69-1.73-3.7-3.61-6.12-3.49s-4.41,2.42-5.91,4.51c-6.75,9.45-13.71,19.38-15.33,30.88-1.59,11.32,2.21,22.63,5.95,33.43,3.66,10.55,8.52,22.36,19,26.13,11.31,4.05,23.25-3.24,33-10.19,15.34-10.88,31.07-22.2,42.25-37.13V632h1.29l-10.5,168.37h67.34l8-168.37h2.06l6.22,168.37h68.76L658.94,632h2.21V509.71l1.89,1.64,34.71,30.11c7.22,6.27,15.49,12.92,25,12.42,6.87-.36,13.08-4.52,17.47-9.81s7.22-11.66,10-17.94c4.61-10.41,9.31-21.16,9.62-32.55S755.05,469.88,744.7,465.12Z" transform="translate(-102.11 -71.85)" fill="#fff"/>
    <path id="Path_57" data-name="Path 57" d="M668.79,348.62H655.31c-7.93-29.27-32.62-49.81-61.87-49.81s-53.93,20.54-61.86,49.81H518.44V379h11.24c4.84,31.84,31.54,52.94,63.76,52.94s58.93-21.1,63.77-52.94h11.58Z" transform="translate(-102.11 -71.85)" fill="url(#linear-gradient-13)"/>
    <path id="Path_58" data-name="Path 58" d="M665,350.54H652.2c-7.53-26.66-31-48.21-58.77-48.21s-51.23,21.55-58.77,48.21H522.21v27.64h10.67c4.6,29,30,48.21,60.57,48.21s56-19.22,60.58-48.21h11Z" transform="translate(-102.11 -71.85)" fill="#fff"/>
    <circle id="Ellipse_34" data-name="Ellipse 34" cx="49.62" cy="49.62" r="49.62" transform="translate(441.37 247.5)" fill="#312e58"/>
    <path id="Path_59" data-name="Path 59" d="M588.92,802.13c0,16.57-17,13.73-37.89,13.73s-37.89,2.84-37.89-13.73,17-35.06,37.89-35.06S588.92,785.56,588.92,802.13Z" transform="translate(-102.11 -71.85)" fill="url(#linear-gradient-14)"/>
    <path id="Path_60" data-name="Path 60" d="M673.48,802.13c0,16.57-17,13.73-37.89,13.73s-37.89,2.84-37.89-13.73,17-35.06,37.89-35.06S673.48,785.56,673.48,802.13Z" transform="translate(-102.11 -71.85)" fill="url(#linear-gradient-14)"/>
    <path id="Path_61" data-name="Path 61" d="M586.11,801.23c0,15.17-15.71,12.58-35.08,12.58s-35.09,2.59-35.09-12.58,15.71-32.08,35.09-32.08S586.11,786.06,586.11,801.23Z" transform="translate(-102.11 -71.85)" fill="#e0e0e0"/>
    <path id="Path_62" data-name="Path 62" d="M671.18,803.36c0,15.17-15.71,12.57-35.08,12.57s-35.1,2.6-35.1-12.57,15.71-32.09,35.09-32.09S671.18,788.19,671.18,803.36Z" transform="translate(-102.11 -71.85)" fill="#e0e0e0"/>
    <path id="Path_63" data-name="Path 63" d="M758.05,265.64a12.72,12.72,0,1,0-21.92,8.76V823.6a4.56,4.56,0,0,0,4.55,4.55h8.13a4.57,4.57,0,0,0,4.55-4.55V275.51A12.69,12.69,0,0,0,758.05,265.64Z" transform="translate(-102.11 -71.85)" fill="url(#linear-gradient-16)"/>
    <path id="Path_64" data-name="Path 64" d="M756.5,265.64a11.17,11.17,0,1,0-17,9.5V821a4.55,4.55,0,0,0,4.5,4.5h3.25a4.56,4.56,0,0,0,4.55-4.54V274.71a11.15,11.15,0,0,0,4.7-9.07Z" transform="translate(-102.11 -71.85)" fill="#e0e0e0"/>
    <path id="Path_65" data-name="Path 65" d="M738.29,472.72c-2,3.09-6,5.66-9.33,4-2.68-1.33-3.54-4.69-3.88-7.66a61.271,61.271,0,0,1,.95-19.94c.86-4,2.69-8.47,6.62-9.52,2.46-.65,5.07.28,7.23,1.63s4,3.1,6.23,4.37c4.24,2.44,9.4,2.88,14.24,2.17,2.4-.35,4.76-1,7.17-1.17a11.94,11.94,0,0,1,7.05,1.23,6.37,6.37,0,0,1,3.32,6c-.3,2.41-2.84,4.45-5.17,3.77a14.85,14.85,0,0,1,5.18,4.71,6.73,6.73,0,0,1,.38,6.71c-1.2,2-4.16,3-6.07,1.61,1.95,1.6,4,3.3,4.88,5.65s.17,5.53-2.18,6.45a20.365,20.365,0,0,1-3,.56,2.593,2.593,0,0,0-2.13,1.95c-.09,1.19,1.1,2,1.8,3,1.57,2.12.7,5.31-1.19,7.14s-4.52,2.65-7,3.41c-3.76,1.13-7.52,2.26-11.3,3.32-4.14,1.16-8.48,2.24-12.68,1.34a13.86,13.86,0,0,1-5.16-24.83c2.07-1.48,2.45-4,4.12-5.89a12.78,12.78,0,0,0,3.05-8.77c0-4.72,1.8-9.28.7-13.87a3.469,3.469,0,0,0-.71.1C741.14,458.07,743,465.57,738.29,472.72Z" transform="translate(-102.11 -71.85)" fill="#312e58"/>
    <path id="Path_66" data-name="Path 66" d="M1097.89,402.18c-115.32-130-230.64,130-346,0v-130c115.32,130,230.64-130,346,0Z" transform="translate(-102.11 -71.85)" fill="url(#linear-gradient-17)"/>
    <path id="Path_67" data-name="Path 67" d="M1094.18,397.32C980.1,278.94,866,515.71,751.93,397.32V278.94c114.08,118.38,228.17-118.39,342.25,0Z" transform="translate(-102.11 -71.85)" fill="#312e58"/>
    <path id="Path_68" data-name="Path 68" d="M442,265.64a12.72,12.72,0,1,1,21.92,8.76V823.6a4.56,4.56,0,0,1-4.55,4.55h-8.13a4.57,4.57,0,0,1-4.55-4.55V275.51a12.69,12.69,0,0,1-4.69-9.87Z" transform="translate(-102.11 -71.85)" fill="url(#linear-gradient-18)"/>
    <path id="Path_69" data-name="Path 69" d="M443.5,265.64a11.17,11.17,0,1,1,17,9.5V821a4.55,4.55,0,0,1-4.5,4.5h-3.25a4.56,4.56,0,0,1-4.55-4.54V274.71a11.15,11.15,0,0,1-4.7-9.07Z" transform="translate(-102.11 -71.85)" fill="#e0e0e0"/>
    <path id="Path_70" data-name="Path 70" d="M102.11,402.18c115.32,130,230.64-130,346,0v-130c-115.32-130-230.64,130-346,0Z" transform="translate(-102.11 -71.85)" fill="url(#linear-gradient-19)"/>
    <path id="Path_71" data-name="Path 71" d="M105.82,397.32c114.08,118.39,228.17-118.38,342.25,0V278.94C334,160.55,219.9,397.32,105.82,278.94Z" transform="translate(-102.11 -71.85)" fill="#312e58"/>
    <rect id="Rectangle_5" data-name="Rectangle 5" width="101.8" height="109.63" rx="6.38" transform="translate(441.39 403.93)" fill="url(#linear-gradient-7)"/>
    <rect id="Rectangle_6" data-name="Rectangle 6" width="97.13" height="102.82" rx="6.38" transform="translate(443.48 407.32)" fill="#312e58"/>
    <rect id="Rectangle_7" data-name="Rectangle 7" width="17.8" height="47.46" transform="translate(456.08 426.88)" opacity="0.2"/>
    <rect id="Rectangle_8" data-name="Rectangle 8" width="23.41" height="16.02" transform="translate(494.72 444.2)" opacity="0.2"/>
    <rect id="Rectangle_9" data-name="Rectangle 9" width="12.94" height="11.51" transform="translate(511.73 418.88)" opacity="0.2"/>
    <circle id="Ellipse_35" data-name="Ellipse 35" cx="14.09" cy="14.09" r="14.09" transform="translate(504.99 468.14)" opacity="0.2"/>
    <path id="Path_72" data-name="Path 72" d="M599.36,330.31A49.55,49.55,0,0,1,639,350.05a49.63,49.63,0,1,0-85.5,48.8,49.64,49.64,0,0,1,45.88-68.54Z" transform="translate(-102.11 -71.85)" opacity="0.2"/>
    <path id="Path_73" data-name="Path 73" d="M416.39,228.19h-1.94c-.39,0-1.37-1.55-1.37-2v-1.8c0-1.41-1.59-5.27-3-5.27s-3,3.86-3,5.27v1.8c0,.64-.49,2-1.09,2h-1.94c-1.41,0-5.27,1.09-5.27,2.5s3.86,2.5,5.27,2.5h2.31c.74,0,.72.75.72,1.14v2.4c0,1.41,1.59,5.27,3,5.27s3-3.86,3-5.27v-2.4c0-.32.64-1.14,1-1.14h2.31c1.41,0,5.27-1.09,5.27-2.5S417.8,228.19,416.39,228.19Z" transform="translate(-132.11 -233.85)" fill="#2196f3"/>
    <circle id="Ellipse_36" data-name="Ellipse 36" cx="3.5" cy="3.5" r="3.5" transform="translate(393.97 222.67)" fill="#0d47a1"/>
    <circle id="Ellipse_37" data-name="Ellipse 37" cx="6.96" cy="6.96" r="6.96" transform="translate(731.97 -8.66)" fill="#64b5f6"/>
    <circle id="Ellipse_38" data-name="Ellipse 38" cx="2.5" cy="2.5" r="2.5" transform="translate(508.97 206.67)" fill="#0071bc"/>
    <circle id="Ellipse_39" data-name="Ellipse 39" cx="3.71" cy="3.71" r="3.71" transform="translate(314.47 -47.66)" fill="#0d47a1"/>
    <path id="Path_74" data-name="Path 74" d="M820.89,164.19H819c-.39,0-1.37-1.55-1.37-2v-1.8c0-1.41-1.59-5.27-3-5.27s-3,3.86-3,5.27v1.8c0,.64-.49,2-1.09,2H808.6c-1.41,0-5.27,1.09-5.27,2.5s3.86,2.5,5.27,2.5h2.31c.74,0,.72.75.72,1.14v2.4c0,1.41,1.59,5.27,3,5.27s3-3.86,3-5.27v-2.4c0-.32.64-1.14,1-1.14h2.31c1.41,0,5.27-1.09,5.27-2.5S822.3,164.19,820.89,164.19Z" transform="translate(-132.11 -233.85)" fill="#2196f3"/>
    <path id="Path_75" data-name="Path 75" d="M913.81,147.19h-1.24c-.25,0-1-1-1-1.26v-1.15c0-.9-1.1-3.36-2-3.36s-2,2.46-2,3.36v1.15c0,.4,0,1.26-.41,1.26h-1.23c-.9,0-3.36.6-3.36,1.5s2.46,1.5,3.36,1.5h1.47c.47,0,.17.68.17.92v1.53c0,.9,1.1,3.36,2,3.36s2-2.46,2-3.36v-1.53c0-.2.52-.92.75-.92h1.48c.89,0,3.35-.6,3.35-1.5S914.7,147.19,913.81,147.19Z" transform="translate(-132.11 -233.85)" fill="#1976d2"/>
    <circle id="Ellipse_40" data-name="Ellipse 40" cx="3.5" cy="3.5" r="3.5" transform="translate(768.47 -23.33)" fill="#0d47a1"/>
    <circle id="Ellipse_41" data-name="Ellipse 41" cx="3.5" cy="3.5" r="3.5" transform="translate(613.47 -110.33)" fill="#0d47a1"/>
    <circle id="Ellipse_42" data-name="Ellipse 42" cx="9.3" cy="9.3" r="9.3" transform="translate(743.13 -142)" fill="url(#linear-gradient-7)"/>
    <circle id="Ellipse_43" data-name="Ellipse 43" cx="9.3" cy="9.3" r="9.3" transform="translate(726.13 -37)" fill="url(#linear-gradient-7)"/>
    <circle id="Ellipse_44" data-name="Ellipse 44" cx="9.3" cy="9.3" r="9.3" transform="translate(591.13 -20)" fill="url(#linear-gradient-7)"/>
    <circle id="Ellipse_45" data-name="Ellipse 45" cx="9.3" cy="9.3" r="9.3" transform="translate(506.13 -119)" fill="url(#linear-gradient-7)"/>
    <circle id="Ellipse_46" data-name="Ellipse 46" cx="9.3" cy="9.3" r="9.3" transform="translate(397.13 -65)" fill="url(#linear-gradient-7)"/>
    <circle id="Ellipse_47" data-name="Ellipse 47" cx="9.3" cy="9.3" r="9.3" transform="translate(208.13 -105)" fill="url(#linear-gradient-7)"/>
    <circle id="Ellipse_48" data-name="Ellipse 48" cx="9.3" cy="9.3" r="9.3" transform="translate(205.13 216)" fill="url(#linear-gradient-7)"/>
    <circle id="Ellipse_49" data-name="Ellipse 49" cx="6.96" cy="6.96" r="6.96" transform="translate(745.47 -139.66)" fill="#64b5f6"/>
    <circle id="Ellipse_50" data-name="Ellipse 50" cx="5.03" cy="5.03" r="5.03" transform="translate(685.92 -111.4)" fill="url(#linear-gradient-28)"/>
    <circle id="Ellipse_51" data-name="Ellipse 51" cx="5.03" cy="5.03" r="5.03" transform="translate(467.92 158.6)" fill="url(#linear-gradient-28)"/>
    <circle id="Ellipse_52" data-name="Ellipse 52" cx="5.03" cy="5.03" r="5.03" transform="translate(180.92 87.6)" fill="url(#linear-gradient-28)"/>
    <circle id="Ellipse_53" data-name="Ellipse 53" cx="5.03" cy="5.03" r="5.03" transform="translate(245.92 214.6)" fill="url(#linear-gradient-28)"/>
    <circle id="Ellipse_54" data-name="Ellipse 54" cx="5.03" cy="5.03" r="5.03" transform="translate(359.92 197.6)" fill="url(#linear-gradient-28)"/>
    <circle id="Ellipse_55" data-name="Ellipse 55" cx="5.03" cy="5.03" r="5.03" transform="translate(497.92 -54.4)" fill="url(#linear-gradient-28)"/>
    <circle id="Ellipse_56" data-name="Ellipse 56" cx="3.48" cy="3.48" r="3.48" transform="translate(687.47 -109.85)" fill="#82a9ff"/>
    <circle id="Ellipse_57" data-name="Ellipse 57" cx="6.5" cy="6.5" r="6.5" transform="translate(737.77 -36.74)" fill="#64b5f6"/>
    <path id="Path_76" data-name="Path 76" d="M467.71,472.72c2.05,3.09,6,5.66,9.33,4,2.68-1.33,3.54-4.69,3.88-7.66a61.271,61.271,0,0,0-.95-19.94c-.86-4-2.69-8.47-6.62-9.52-2.46-.65-5.07.28-7.23,1.63s-4,3.1-6.23,4.37c-4.24,2.44-9.4,2.88-14.24,2.17-2.4-.35-4.76-1-7.17-1.17a11.94,11.94,0,0,0-7.05,1.23,6.37,6.37,0,0,0-3.32,6c.3,2.41,2.84,4.45,5.17,3.77a14.85,14.85,0,0,0-5.18,4.71,6.73,6.73,0,0,0-.38,6.71c1.2,2,4.16,3,6.07,1.61-2,1.6-4,3.3-4.88,5.65s-.17,5.53,2.18,6.45a20.371,20.371,0,0,0,3,.56c1,.24,2.05.92,2.13,1.95.09,1.19-1.1,2-1.8,3-1.57,2.12-.7,5.31,1.19,7.14s4.52,2.65,7,3.41c3.76,1.13,7.52,2.26,11.3,3.32,4.14,1.16,8.48,2.24,12.68,1.34a13.86,13.86,0,0,0,5.16-24.83c-2.07-1.48-2.45-4-4.12-5.89a12.78,12.78,0,0,1-3-8.77c0-4.72-1.8-9.28-.7-13.87a3.469,3.469,0,0,1,.71.1C464.86,458.07,463,465.57,467.71,472.72Z" transform="translate(-102.11 -71.85)" fill="#312e58"/>
  </g>
</svg>
